<svg version="1.1"
	 xmlns="http://www.w3.org/2000/svg" xmlns:xlink="http://www.w3.org/1999/xlink" xmlns:a="http://ns.adobe.com/AdobeSVGViewerExtensions/3.0/"
	 x="0px" y="0px" width="20px" height="20px" viewBox="0 0 20 20" style="enable-background:new 0 0 20 20;" xml:space="preserve">
	<rect fill="none" class="st0" width="20" height="20"/>
	<path fill="#3C5A9A" d="M10,0C4.5,0,0,4.5,0,10c0,5.5,4.5,10,10,10s10-4.5,10-10C20,4.5,15.5,0,10,0zM12.4,7l-0.9,0c-0.7,0-0.8,0.3-0.8,0.8v1h1.6l-0.2,1.6h-1.4v4.2h0h0l0,0l-1.7,0v-4.1H7.6V8.8H9V7.6c0-1.4,0.8-2.1,2.1-2.1c0.6,0,1.1,0,1.2,0.1V7z"/>
</svg>
