<!-- Generator: Adobe Illustrator 21.1.0, SVG Export Plug-In  -->
<svg version="1.1"
	 xmlns="http://www.w3.org/2000/svg" xmlns:xlink="http://www.w3.org/1999/xlink" xmlns:a="http://ns.adobe.com/AdobeSVGViewerExtensions/3.0/"
	 x="0px" y="0px" width="20px" height="20px" viewBox="0 0 20 20" style="enable-background:new 0 0 20 20;" xml:space="preserve">
<style type="text/css">
	.st0{fill:none;}
	.st1{fill:url(#SVGID_1_);}
	.st2{fill:url(#SVGID_2_);}
	.st3{fill:url(#SVGID_3_);}
	.st4{fill:url(#SVGID_4_);}
	.st5{fill:url(#SVGID_5_);}
	.st6{fill:url(#SVGID_6_);}
</style>
<defs>
</defs>
<rect class="st0" width="20" height="20"/>
<g>
		<radialGradient id="SVGID_1_" cx="9.1469" cy="11.0189" r="2.6452" gradientTransform="matrix(-0.8321 0.5547 -3.3282 -4.9923 53.4307 60.955)" gradientUnits="userSpaceOnUse">
		<stop  offset="0.1529" style="stop-color:#CF7B60"/>
		<stop  offset="0.9024" style="stop-color:#BC5F7F"/>
	</radialGradient>
	<circle class="st1" cx="10" cy="10" r="1.3"/>
	<radialGradient id="SVGID_2_" cx="7.8473" cy="12.571" r="6.6745" gradientUnits="userSpaceOnUse">
		<stop  offset="0.2392" style="stop-color:#CF7B60"/>
		<stop  offset="0.8678" style="stop-color:#BC5F7F"/>
	</radialGradient>
	<path class="st2" d="M12.5,6.8H7.5c-0.4,0-0.7,0.3-0.7,0.7v4.9c0,0.4,0.3,0.7,0.7,0.7h4.9c0.4,0,0.7-0.3,0.7-0.7V7.5
		C13.2,7.1,12.9,6.8,12.5,6.8z M10,12.6c-1.4,0-2.6-1.2-2.6-2.6S8.6,7.4,10,7.4s2.6,1.2,2.6,2.6S11.4,12.6,10,12.6z M12.3,8.2
		c-0.3,0-0.6-0.3-0.6-0.6C11.8,7.3,12,7,12.3,7s0.6,0.3,0.6,0.6C12.9,7.9,12.7,8.2,12.3,8.2z"/>
	<radialGradient id="SVGID_3_" cx="3.2561" cy="18.0542" r="20.9093" gradientUnits="userSpaceOnUse">
		<stop  offset="0.1161" style="stop-color:#FFBE15"/>
		<stop  offset="0.4085" style="stop-color:#CF7B60"/>
		<stop  offset="0.5984" style="stop-color:#BC5F7F"/>
		<stop  offset="0.6173" style="stop-color:#B95A84"/>
		<stop  offset="0.8787" style="stop-color:#8B19CD"/>
		<stop  offset="1" style="stop-color:#7900E9"/>
	</radialGradient>
	<path class="st3" d="M10,0C4.5,0,0,4.5,0,10c0,5.5,4.5,10,10,10s10-4.5,10-10C20,4.5,15.5,0,10,0z M14.5,12.5
		c0,1.2-0.9,2.1-2.1,2.1H7.5c-1.2,0-2.1-0.9-2.1-2.1V7.5c0-1.2,0.9-2.1,2.1-2.1h4.9c1.2,0,2.1,0.9,2.1,2.1V12.5z"/>
</g>
</svg>
