<svg version="1.1"
	 xmlns="http://www.w3.org/2000/svg" xmlns:xlink="http://www.w3.org/1999/xlink" xmlns:a="http://ns.adobe.com/AdobeSVGViewerExtensions/3.0/"
	 x="0px" y="0px" width="20px" height="20px" viewBox="0 0 20 21" enable-background="new 0 0 20 20" xml:space="preserve">
	<defs>
	  <filter id="dropshadow">
	    <feGaussianBlur in="SourceAlpha" stdDeviation="0"/>
	    <feOffset dx="0" dy="1" result="offsetblur"/>
	    <feFlood flood-color="#000000"/>
	    <feComposite in2="offsetblur" operator="in"/>
	    <feComponentTransfer>
	      <feFuncA type="linear" slope="0.25"/>
	    </feComponentTransfer>
	    <feMerge>
	      <feMergeNode/>
	      <feMergeNode in="SourceGraphic"/>
	    </feMerge>
	  </filter>
	</defs>

<rect fill="none" width="20" height="20"/>
<g fill="white" filter="url(#dropshadow)">
	<path d="M19.57,18.57H.42A.37.37,0,0,1,0,18.15V11.39a.41.41,0,0,1,.12-.3A.41.41,0,0,1,.42,11H1.5a.42.42,0,0,1,.3.12.41.41,0,0,1,.12.3v5.27H18.09V11.39a.42.42,0,0,1,.42-.42h1.06a.41.41,0,0,1,.3.12.4.4,0,0,1,.13.3v6.76A.38.38,0,0,1,19.57,18.57ZM4.28,8.36H7.62V2.28a.83.83,0,0,1,.24-.6.81.81,0,0,1,.6-.24h3.1a.78.78,0,0,1,.59.24.84.84,0,0,1,.23.6V8.36h3.33c.24,0,.38.06.42.17s0,.25-.17.42l-5.35,5.77a.85.85,0,0,1-1.21,0L4,8.95c-.17-.17-.22-.31-.17-.42S4.06,8.36,4.28,8.36Z"/>
</g>
</svg>