<svg version="1.1"
	 xmlns="http://www.w3.org/2000/svg" xmlns:xlink="http://www.w3.org/1999/xlink" xmlns:a="http://ns.adobe.com/AdobeSVGViewerExtensions/3.0/"
	 x="0px" y="0px" width="20px" height="20px" viewBox="0 0 20 20" enable-background="new 0 0 20 20" xml:space="preserve">

<rect fill="none" width="20" height="20"/>
<g fill="#333333">
	<path d="M10,12.81,4.32,10.38A5.67,5.67,0,0,0,3.58,13a11.4,11.4,0,0,1,6.42,3,11.4,11.4,0,0,1,6.42-3,5.67,5.67,0,0,0-.74-2.64Z"/>
	<path d="M2.17,13.44V9.15L10,12.51,20,8.22,10,3.93,0,8.22,1.71,9v4.48a.4.4,0,0,0-.29.37v2.12a.15.15,0,0,0,.15.15h.74a.15.15,0,0,0,.15-.15V13.8A.4.4,0,0,0,2.17,13.44Z"/>
</g>
</svg>