<svg version="1.1"
	 xmlns="http://www.w3.org/2000/svg" xmlns:xlink="http://www.w3.org/1999/xlink" xmlns:a="http://ns.adobe.com/AdobeSVGViewerExtensions/3.0/"
	 x="0px" y="0px" width="20px" height="20px" viewBox="0 0 20 20" enable-background="new 0 0 20 20" xml:space="preserve">

<rect fill="none" width="20" height="20"/>
<g fill="#333333">
	<path d="M3.11,6.88c.94-.73,1.71-.23,2.75,1,.12.13.27,0,.36-.1L7.74,6.38a.19.19,0,0,0,0-.29c-.11-.12-.5-.63-.75-1-1.82-2.38,5-4,3.92-4-.53,0-2.66,0-3,0C6.7,1.26,5.08,2.46,4.27,3A10.65,10.65,0,0,0,2.74,4.24c-.3.26,0,.87-.59,1.35S1.21,5.71.88,6c-.17.15-.63.49-.76.61a.33.33,0,0,0,0,.47L1.47,8.61A.44.44,0,0,0,2,8.68l.71-.62C2.83,8,2.7,7.19,3.11,6.88Zm5.73.52a.26.26,0,0,0-.4,0L7,8.62A.29.29,0,0,0,7,9L15.3,18.5a.53.53,0,0,0,.75.05l1-.82a.54.54,0,0,0,.05-.76Zm11.11-4c-.07-.5-.33-.39-.46-.18s-.72,1.11-1,1.51a1.2,1.2,0,0,1-1.94.41c-1.15-.82-.75-1.38-.55-1.77s.82-1.46.91-1.6a.27.27,0,0,0-.37-.36c-.36.17-2.53,1-2.84,2.27S14,6,12.87,7.15L11.52,8.56l1.35,1.57,1.66-1.58a2.35,2.35,0,0,1,2-.61,2.46,2.46,0,0,0,3.07-1.26A7.26,7.26,0,0,0,19.94,3.36ZM2.71,17.08a.54.54,0,0,0,0,.76l1,.93a.53.53,0,0,0,.75-.09l4.93-4.85L7.83,12.12Z"/>
</g>
</svg>