<svg version="1.1"
	 xmlns="http://www.w3.org/2000/svg" xmlns:xlink="http://www.w3.org/1999/xlink" xmlns:a="http://ns.adobe.com/AdobeSVGViewerExtensions/3.0/"
	 x="0px" y="0px" width="20px" height="20px" viewBox="0 0 20 20" enable-background="new 0 0 20 20" xml:space="preserve">

<rect fill="none" width="20" height="20"/>
<g fill="#333333">
	<path d="M18.47,4.18H16.36V2.8a1.53,1.53,0,0,0-1.53-1.53H5.17A1.53,1.53,0,0,0,3.64,2.8V4.18H1.53A1.53,1.53,0,0,0,0,5.71V12.8H2.55V11.64a.87.87,0,0,1,.87-.87H5.67a.87.87,0,0,1,.87.87V12.8h6.91V11.64a.87.87,0,0,1,.87-.87h2.25a.87.87,0,0,1,.87.87V12.8H20V5.71A1.53,1.53,0,0,0,18.47,4.18Zm-3.92,0H5.45V2.8h9.09Z"/>
	<path d="M17.45,15.35a.87.87,0,0,1-.87.87H14.33a.87.87,0,0,1-.87-.87V14.18H6.55v1.17a.87.87,0,0,1-.87.87H3.42a.87.87,0,0,1-.87-.87V14.18H0v3a1.53,1.53,0,0,0,1.53,1.53H18.47A1.53,1.53,0,0,0,20,17.2v-3H17.45Z"/>
	<rect x="14.73" y="12.04" width="1.45" height="2.91"/>
	<rect x="3.82" y="12.04" width="1.45" height="2.91"/>
</g>
</svg>