<svg version="1.1"
	 xmlns="http://www.w3.org/2000/svg" xmlns:xlink="http://www.w3.org/1999/xlink" xmlns:a="http://ns.adobe.com/AdobeSVGViewerExtensions/3.0/"
	 x="0px" y="0px" width="20px" height="20px" viewBox="0 0 20 20" enable-background="new 0 0 20 20" xml:space="preserve">

<rect fill="none" width="20" height="20"/>
<g fill="#333333">
	<path d="M1.1,4.6l8.8,5.7c0.1,0,0.1,0.1,0.1,0.1c0.1,0,0-0.1,0.1-0.1l8.8-5.8v0l0.9-0.5H0.2L1.1,4.6L1.1,4.6z"/>
	<path d="M10.7,11.1c-0.1,0.1-0.2,0.1-0.4,0.2c-0.1,0.1-0.2,0.1-0.3,0.1c0,0,0,0,0,0c0,0,0,0,0,0c-0.1,0-0.2,0-0.3-0.1c-0.1,0-0.2-0.1-0.4-0.2l-2-1.3L3.5,7.4L0,5.2v10.7h20V5.2L10.7,11.1z"/>
</g>
</svg>