<!-- Generator: Adobe Illustrator 21.1.0, SVG Export Plug-In  -->
<svg version="1.1"
	 xmlns="http://www.w3.org/2000/svg" xmlns:xlink="http://www.w3.org/1999/xlink" xmlns:a="http://ns.adobe.com/AdobeSVGViewerExtensions/3.0/"
	 x="0px" y="0px" width="20px" height="20px" viewBox="0 0 20 20" style="enable-background:new 0 0 20 20;" xml:space="preserve">
	<rect fill="none" width="20" height="20"/>
	<linearGradient id="gradient" gradientUnits="userSpaceOnUse" x1="10" y1="20" x2="10" y2="0">
		<stop  offset="0" style="stop-color:#25A559"/>
		<stop  offset="1" style="stop-color:#30CE68"/>
	</linearGradient>
	<path fill="url(#gradient)" d="M10,0C4.5,0,0,4.5,0,10c0,5.5,4.5,10,10,10s10-4.5,10-10C20,4.5,15.5,0,10,0zM13.1,13.5l-1,1c0,0-0.1,0.1-0.1,0.1c-0.1,0-0.1,0-0.1-0.1l-1-1c0,0-0.1-0.1-0.1-0.1c0-0.1,0.1-0.2,0.2-0.2h0.4v-2.5H8.7v2.5c0,0.1-0.1,0.2-0.2,0.2H7.6c-0.1,0-0.2-0.1-0.2-0.2l0-6.4H7c-0.1,0-0.2-0.1-0.2-0.2c0-0.1,0-0.1,0.1-0.1l1-1c0,0,0.1-0.1,0.1-0.1c0.1,0,0.1,0,0.1,0.1l1,1c0,0,0.1,0.1,0.1,0.1c0,0.1-0.1,0.2-0.2,0.2H8.7v2.5l2.7,0V6.8c0-0.1,0.1-0.2,0.2-0.2h0.9c0.1,0,0.2,0.1,0.2,0.2l0,6.4H13c0.1,0,0.2,0.1,0.2,0.2C13.2,13.4,13.1,13.5,13.1,13.5z"/>
</svg>
