<!-- Generator: Adobe Illustrator 21.1.0, SVG Export Plug-In  -->
<svg version="1.1"
	 xmlns="http://www.w3.org/2000/svg" xmlns:xlink="http://www.w3.org/1999/xlink" xmlns:a="http://ns.adobe.com/AdobeSVGViewerExtensions/3.0/"
	 x="0px" y="0px" width="20px" height="20px" viewBox="0 0 20 20" style="enable-background:new 0 0 20 20;" xml:space="preserve">
	<linearGradient id="gradient" gradientUnits="userSpaceOnUse" x1="0" y1="10" x2="20" y2="10">
		<stop offset="0" style="stop-color:#2489BE"/>
		<stop offset="1" style="stop-color:#0575B3"/>
	</linearGradient>
	<rect fill="none" width="20" height="20"/>
	<path fill="url(#gradient)" d="M10,0L10,0C4.5,0,0,4.5,0,10v0c0,5.5,4.5,10,10,10h0c5.5,0,10-4.5,10-10v0C20,4.5,15.5,0,10,0z M7.5,14.5H5.6
	V8.5h1.9V14.5z M6.6,7.7C6,7.7,5.5,7.2,5.5,6.6C5.5,6,6,5.5,6.6,5.5c0.6,0,1.1,0.5,1.1,1.1C7.7,7.2,7.2,7.7,6.6,7.7z M14.5,14.5
	h-1.9v-3.2c0-0.9-0.3-1.4-1-1.4c-0.8,0-1.1,0.5-1.1,1.4v3.2H8.7V8.5h1.8v0.8c0,0,0.5-1,1.8-1c1.3,0,2.2,0.8,2.2,2.4L14.5,14.5z"/>
</svg>
